<svg width="44" height="44" viewBox="0 0 44 44" fill="none" xmlns="http://www.w3.org/2000/svg">
<path d="M7.33137 36.1717C6.33998 36.1717 5.49099 35.8184 4.7844 35.1118C4.07781 34.4052 3.72512 33.5568 3.72632 32.5667V10.9364C3.72632 9.94496 4.07962 9.09597 4.78621 8.38938C5.4928 7.68279 6.34118 7.3301 7.33137 7.3313H36.1718C37.1632 7.3313 38.0122 7.6846 38.7187 8.39119C39.4253 9.09778 39.778 9.94616 39.7768 10.9364V32.5667C39.7768 33.558 39.4235 34.407 38.7169 35.1136C38.0104 35.8202 37.162 36.1729 36.1718 36.1717H7.33137ZM21.7516 23.554L7.33137 14.5414V32.5667H36.1718V14.5414L21.7516 23.554ZM21.7516 19.949L36.1718 10.9364H7.33137L21.7516 19.949ZM7.33137 14.5414V10.9364V32.5667V14.5414Z" fill="white"/>
</svg>
