<svg width="363" height="118" viewBox="0 0 363 118" fill="none" xmlns="http://www.w3.org/2000/svg">
<path d="M44.568 82.768C41.5387 82.768 38.744 82.2133 36.184 81.104C33.6667 79.952 31.5973 78.3307 29.976 76.24L35.736 69.328C36.9733 70.9493 38.2747 72.1867 39.64 73.04C41.0053 73.8507 42.4773 74.256 44.056 74.256C48.28 74.256 50.392 71.7813 50.392 66.832V45.52H34.648V37.2H60.696V66.256C60.696 71.8027 59.3307 75.9413 56.6 78.672C53.8693 81.4027 49.8587 82.768 44.568 82.768ZM90.841 82.768C84.4837 82.768 79.513 80.9973 75.929 77.456C72.345 73.9147 70.553 68.8587 70.553 62.288V37.2H80.921V61.904C80.921 66.1707 81.7957 69.2427 83.545 71.12C85.2943 72.9973 87.7477 73.936 90.905 73.936C94.0623 73.936 96.5157 72.9973 98.265 71.12C100.014 69.2427 100.889 66.1707 100.889 61.904V37.2H111.129V62.288C111.129 68.8587 109.337 73.9147 105.753 77.456C102.169 80.9973 97.1983 82.768 90.841 82.768ZM121.375 82V37.2H131.743V73.552H154.207V82H121.375ZM165.092 82V45.648H150.756V37.2H189.796V45.648H175.46V82H165.092ZM205.252 82L190.596 37.2H201.348L214.084 76.88H208.708L222.02 37.2H231.62L244.42 76.88H239.236L252.292 37.2H262.212L247.556 82H236.42L225.092 47.184H228.036L216.388 82H205.252ZM268 82V37.2H276.576L303.008 69.456H298.847V37.2H309.088V82H300.576L274.08 49.744H278.24V82H268ZM322.759 82.512C321.052 82.512 319.58 81.936 318.343 80.784C317.148 79.5893 316.551 78.0747 316.551 76.24C316.551 74.4053 317.148 72.9333 318.343 71.824C319.58 70.672 321.052 70.096 322.759 70.096C324.508 70.096 325.98 70.672 327.175 71.824C328.37 72.9333 328.967 74.4053 328.967 76.24C328.967 78.0747 328.37 79.5893 327.175 80.784C325.98 81.936 324.508 82.512 322.759 82.512Z" fill="#23CE6B"/>
</svg>
