<svg width="44" height="44" viewBox="0 0 44 44" fill="none" xmlns="http://www.w3.org/2000/svg">
<path d="M14.181 3.72607H29.3222C35.0903 3.72607 39.7768 8.41264 39.7768 14.1807V29.3219C39.7768 32.0947 38.6754 34.7539 36.7147 36.7145C34.7541 38.6751 32.0949 39.7766 29.3222 39.7766H14.181C8.41288 39.7766 3.72632 35.09 3.72632 29.3219V14.1807C3.72632 11.408 4.82779 8.7488 6.78841 6.78817C8.74904 4.82754 11.4082 3.72607 14.181 3.72607ZM13.8205 7.33112C12.0994 7.33112 10.4489 8.01479 9.23198 9.23174C8.01504 10.4487 7.33137 12.0992 7.33137 13.8202V29.6824C7.33137 33.2695 10.2334 36.1715 13.8205 36.1715H29.6827C31.4037 36.1715 33.0542 35.4879 34.2712 34.2709C35.4881 33.054 36.1718 31.4035 36.1718 29.6824V13.8202C36.1718 10.2332 33.2697 7.33112 29.6827 7.33112H13.8205ZM31.2148 10.0349C31.8124 10.0349 32.3855 10.2723 32.8081 10.6948C33.2306 11.1174 33.468 11.6905 33.468 12.2881C33.468 12.8856 33.2306 13.4587 32.8081 13.8813C32.3855 14.3038 31.8124 14.5412 31.2148 14.5412C30.6173 14.5412 30.0442 14.3038 29.6216 13.8813C29.1991 13.4587 28.9617 12.8856 28.9617 12.2881C28.9617 11.6905 29.1991 11.1174 29.6216 10.6948C30.0442 10.2723 30.6173 10.0349 31.2148 10.0349ZM21.7516 12.7387C24.1419 12.7387 26.4343 13.6882 28.1245 15.3784C29.8147 17.0686 30.7642 19.361 30.7642 21.7513C30.7642 24.1416 29.8147 26.434 28.1245 28.1242C26.4343 29.8144 24.1419 30.764 21.7516 30.764C19.3613 30.764 17.0689 29.8144 15.3787 28.1242C13.6885 26.434 12.7389 24.1416 12.7389 21.7513C12.7389 19.361 13.6885 17.0686 15.3787 15.3784C17.0689 13.6882 19.3613 12.7387 21.7516 12.7387ZM21.7516 16.3438C20.3174 16.3438 18.942 16.9135 17.9278 17.9276C16.9137 18.9417 16.344 20.3171 16.344 21.7513C16.344 23.1855 16.9137 24.5609 17.9278 25.5751C18.942 26.5892 20.3174 27.1589 21.7516 27.1589C23.1857 27.1589 24.5612 26.5892 25.5753 25.5751C26.5894 24.5609 27.1591 23.1855 27.1591 21.7513C27.1591 20.3171 26.5894 18.9417 25.5753 17.9276C24.5612 16.9135 23.1857 16.3438 21.7516 16.3438Z" fill="white"/>
</svg>
