<svg width="44" height="44" viewBox="0 0 44 44" fill="none" xmlns="http://www.w3.org/2000/svg">
<path d="M12.5093 9.01256C12.5088 9.96867 12.1286 10.8854 11.4522 11.5612C10.7758 12.2369 9.85862 12.6162 8.90251 12.6158C7.94641 12.6153 7.02965 12.235 6.35392 11.5586C5.67819 10.8822 5.29884 9.96507 5.29932 9.00896C5.29979 8.05285 5.68006 7.1361 6.35647 6.46037C7.03288 5.78464 7.95001 5.40528 8.90612 5.40576C9.86222 5.40624 10.779 5.78651 11.4547 6.46292C12.1304 7.13932 12.5098 8.05646 12.5093 9.01256ZM12.6175 15.2853H5.40747V37.8526H12.6175V15.2853ZM24.0093 15.2853H16.8353V37.8526H23.9372V26.0101C23.9372 19.413 32.5351 18.8001 32.5351 26.0101V37.8526H39.655V23.5587C39.655 12.4373 26.9293 12.8519 23.9372 18.3135L24.0093 15.2853Z" fill="white"/>
</svg>
